<?xml version="1.0" encoding="UTF-8" standalone="no"?><svg xmlns="http://www.w3.org/2000/svg" xmlns:xlink="http://www.w3.org/1999/xlink" contentScriptType="application/ecmascript" contentStyleType="text/css" height="1155px" preserveAspectRatio="none" style="width:476px;height:1155px;" version="1.1" viewBox="0 0 476 1155" width="476px" zoomAndPan="magnify"><defs><filter height="300%" id="f1ur29np0zvuc" width="300%" x="-1" y="-1"><feGaussianBlur result="blurOut" stdDeviation="2.0"/><feColorMatrix in="blurOut" result="blurOut2" type="matrix" values="0 0 0 0 0 0 0 0 0 0 0 0 0 0 0 0 0 0 .4 0"/><feOffset dx="4.0" dy="4.0" in="blurOut2" result="blurOut3"/><feBlend in="SourceGraphic" in2="blurOut3" mode="normal"/></filter></defs><g><text fill="#BE743A" font-family="sans-serif" font-size="18" lengthAdjust="spacingAndGlyphs" text-decoration="underline" textLength="168" x="155" y="16.708">Complete Example</text><text fill="#BE743A" font-family="sans-serif" font-size="18" lengthAdjust="spacingAndGlyphs" textLength="0" x="329" y="16.708"/><text fill="#BE743A" font-family="sans-serif" font-size="18" lengthAdjust="spacingAndGlyphs" textLength="0" x="245" y="37.6611"/><ellipse cx="160.5" cy="59.9063" fill="#CF854B" filter="url(#f1ur29np0zvuc)" rx="10" ry="10" style="stroke: none; stroke-width: 1.0;"/><rect fill="#FAF9F7" filter="url(#f1ur29np0zvuc)" height="33.9688" rx="12.5" ry="12.5" style="stroke: #CF854B; stroke-width: 1.5;" width="200" x="60.5" y="110.9063"/><text fill="#14110C" font-family="sans-serif" font-size="12" lengthAdjust="spacingAndGlyphs" textLength="180" x="70.5" y="132.0449">ClickServlet.handleRequest()</text><rect fill="#FAF9F7" filter="url(#f1ur29np0zvuc)" height="33.9688" rx="12.5" ry="12.5" style="stroke: #CF854B; stroke-width: 1.5;" width="81" x="120" y="185.9063"/><text fill="#14110C" font-family="sans-serif" font-size="12" lengthAdjust="spacingAndGlyphs" textLength="61" x="130" y="207.0449">new Page</text><polygon fill="#FFE8AE" filter="url(#f1ur29np0zvuc)" points="160.5,265.9063,172.5,277.9063,160.5,289.9063,148.5,277.9063,160.5,265.9063" style="stroke: #DF955B; stroke-width: 1.5;"/><rect fill="#FAF9F7" filter="url(#f1ur29np0zvuc)" height="33.9688" rx="12.5" ry="12.5" style="stroke: #CF854B; stroke-width: 1.5;" width="101" x="220" y="260.9063"/><text fill="#14110C" font-family="sans-serif" font-size="12" lengthAdjust="spacingAndGlyphs" textLength="81" x="230" y="282.0449">Page.onInit()</text><polygon fill="#FFE8AE" filter="url(#f1ur29np0zvuc)" points="279.5,340.9063,291.5,352.9063,279.5,364.9063,267.5,352.9063,279.5,340.9063" style="stroke: #DF955B; stroke-width: 1.5;"/><rect fill="#FAF9F7" filter="url(#f1ur29np0zvuc)" height="33.9688" rx="12.5" ry="12.5" style="stroke: #CF854B; stroke-width: 1.5;" width="125" x="327" y="335.9063"/><text fill="#14110C" font-family="sans-serif" font-size="12" lengthAdjust="spacingAndGlyphs" textLength="105" x="337" y="357.0449">Process controls</text><polygon fill="#FFE8AE" filter="url(#f1ur29np0zvuc)" points="389.5,410.9063,401.5,422.9063,389.5,434.9063,377.5,422.9063,389.5,410.9063" style="stroke: #DF955B; stroke-width: 1.5;"/><rect fill="#CF854B" filter="url(#f1ur29np0zvuc)" height="8" style="stroke: none; stroke-width: 1.0;" width="80" x="311.5" y="488.9063"/><rect fill="#CF854B" filter="url(#f1ur29np0zvuc)" height="8" style="stroke: none; stroke-width: 1.0;" width="80" x="261.5" y="778.9063"/><polygon fill="#FFE8AE" filter="url(#f1ur29np0zvuc)" points="351.5,550.9063,363.5,562.9063,351.5,574.9063,339.5,562.9063,351.5,550.9063" style="stroke: #DF955B; stroke-width: 1.5;"/><rect fill="#FAF9F7" filter="url(#f1ur29np0zvuc)" height="33.9688" rx="12.5" ry="12.5" style="stroke: #CF854B; stroke-width: 1.5;" width="110" x="184.5" y="628.9063"/><text fill="#14110C" font-family="sans-serif" font-size="12" lengthAdjust="spacingAndGlyphs" textLength="90" x="194.5" y="650.0449">Page.onPost()</text><rect fill="#FAF9F7" filter="url(#f1ur29np0zvuc)" height="33.9688" rx="12.5" ry="12.5" style="stroke: #CF854B; stroke-width: 1.5;" width="127" x="238" y="703.9063"/><text fill="#14110C" font-family="sans-serif" font-size="12" lengthAdjust="spacingAndGlyphs" textLength="107" x="248" y="725.0449">Page.onRender()</text><rect fill="#FAF9F7" filter="url(#f1ur29np0zvuc)" height="33.9688" rx="12.5" ry="12.5" style="stroke: #CF854B; stroke-width: 1.5;" width="104" x="314.5" y="628.9063"/><text fill="#14110C" font-family="sans-serif" font-size="12" lengthAdjust="spacingAndGlyphs" textLength="84" x="324.5" y="650.0449">Page.onGet()</text><polygon fill="#FFE8AE" filter="url(#f1ur29np0zvuc)" points="301.5,827.9063,313.5,839.9063,301.5,851.9063,289.5,839.9063,301.5,827.9063" style="stroke: #DF955B; stroke-width: 1.5;"/><rect fill="#FAF9F7" filter="url(#f1ur29np0zvuc)" height="33.9688" rx="12.5" ry="12.5" style="stroke: #CF854B; stroke-width: 1.5;" width="122" x="320.5" y="871.9063"/><text fill="#14110C" font-family="sans-serif" font-size="12" lengthAdjust="spacingAndGlyphs" textLength="102" x="330.5" y="893.0449">redirect request</text><rect fill="#CF854B" filter="url(#f1ur29np0zvuc)" height="8" style="stroke: none; stroke-width: 1.0;" width="80" x="270.5" y="1000.9063"/><polygon fill="#FFE8AE" filter="url(#f1ur29np0zvuc)" points="182.5,930.9063,194.5,942.9063,182.5,954.9063,170.5,942.9063,182.5,930.9063" style="stroke: #DF955B; stroke-width: 1.5;"/><rect fill="#FAF9F7" filter="url(#f1ur29np0zvuc)" height="33.9688" rx="12.5" ry="12.5" style="stroke: #CF854B; stroke-width: 1.5;" width="123" x="6" y="925.9063"/><text fill="#14110C" font-family="sans-serif" font-size="12" lengthAdjust="spacingAndGlyphs" textLength="103" x="16" y="947.0449">Forward request</text><rect fill="#FAF9F7" filter="url(#f1ur29np0zvuc)" height="33.9688" rx="12.5" ry="12.5" style="stroke: #CF854B; stroke-width: 1.5;" width="161" x="230" y="925.9063"/><text fill="#14110C" font-family="sans-serif" font-size="12" lengthAdjust="spacingAndGlyphs" textLength="141" x="240" y="947.0449">Render page template</text><rect fill="#FAF9F7" filter="url(#f1ur29np0zvuc)" height="33.9688" rx="12.5" ry="12.5" style="stroke: #CF854B; stroke-width: 1.5;" width="130" x="245.5" y="1049.9063"/><text fill="#14110C" font-family="sans-serif" font-size="12" lengthAdjust="spacingAndGlyphs" textLength="110" x="255.5" y="1071.0449">Page.onDestroy()</text><ellipse cx="310.5" cy="1134.9063" fill="none" filter="url(#f1ur29np0zvuc)" rx="10" ry="10" style="stroke: #5C2F1C; stroke-width: 1.0;"/><ellipse cx="311" cy="1135.4063" fill="#5C2F1C" rx="6" ry="6" style="stroke: none; stroke-width: 1.0;"/><!--link start to ClickServlet.handleRequest()--><path d="M160.5,69.9398 C160.5,79.3145 160.5,93.6347 160.5,105.6961 " fill="none" id="start-&gt;ClickServlet.handleRequest()" style="stroke: #5C2F1C; stroke-width: 1.0;"/><polygon fill="#5C2F1C" points="160.5,110.7058,164.5,101.7058,160.5,105.7058,156.5,101.7058,160.5,110.7058" style="stroke: #5C2F1C; stroke-width: 1.0;"/><!--link ClickServlet.handleRequest() to new Page--><path d="M160.5,144.9249 C160.5,155.494 160.5,169.1942 160.5,180.6233 " fill="none" id="ClickServlet.handleRequest()-&gt;new Page" style="stroke: #5C2F1C; stroke-width: 1.0;"/><polygon fill="#5C2F1C" points="160.5,185.6953,164.5,176.6953,160.5,180.6953,156.5,176.6953,160.5,185.6953" style="stroke: #5C2F1C; stroke-width: 1.0;"/><!--link new Page to #293--><path d="M160.5,219.9249 C160.5,232.0681 160.5,248.3446 160.5,260.561 " fill="none" id="new Page-&gt;#293" style="stroke: #5C2F1C; stroke-width: 1.0;"/><polygon fill="#5C2F1C" points="160.5,265.8588,164.5,256.8588,160.5,260.8588,156.5,256.8588,160.5,265.8588" style="stroke: #5C2F1C; stroke-width: 1.0;"/><text fill="#000000" font-family="sans-serif" font-size="11" lengthAdjust="spacingAndGlyphs" textLength="126" x="14.4187" y="258.4449">Page.onSecurityCheck</text><!--link #293 to Page.onInit()--><path d="M172.6922,277.9063 C183.045,277.9063 198.6935,277.9063 214.4563,277.9063 " fill="none" id="#293-&gt;Page.onInit()" style="stroke: #5C2F1C; stroke-width: 1.0;"/><polygon fill="#5C2F1C" points="219.7988,277.9063,210.7988,273.9063,214.7988,277.9063,210.7988,281.9063,219.7988,277.9063" style="stroke: #5C2F1C; stroke-width: 1.0;"/><text fill="#000000" font-family="sans-serif" font-size="11" lengthAdjust="spacingAndGlyphs" textLength="23" x="184.75" y="272.1167">true</text><!--link Page.onInit() to #298--><path d="M272.5422,294.9249 C274.0489,307.4801 276.0857,324.4535 277.566,336.7899 " fill="none" id="Page.onInit()-&gt;#298" style="stroke: #5C2F1C; stroke-width: 1.0;"/><polygon fill="#5C2F1C" points="278.1632,341.7666,281.0622,332.354,277.5673,336.8022,273.1192,333.3074,278.1632,341.7666" style="stroke: #5C2F1C; stroke-width: 1.0;"/><text fill="#000000" font-family="sans-serif" font-size="11" lengthAdjust="spacingAndGlyphs" textLength="62" x="197.1653" y="330.1438">isForward?</text><!--link #298 to Process controls--><path d="M291.6922,352.9063 C299.405,352.9063 310.057,352.9063 321.5058,352.9063 " fill="none" id="#298-&gt;Process controls" style="stroke: #5C2F1C; stroke-width: 1.0;"/><polygon fill="#5C2F1C" points="326.8145,352.9063,317.8145,348.9063,321.8145,352.9063,317.8145,356.9063,326.8145,352.9063" style="stroke: #5C2F1C; stroke-width: 1.0;"/><text fill="#000000" font-family="sans-serif" font-size="11" lengthAdjust="spacingAndGlyphs" textLength="14" x="302.25" y="347.1167">no</text><!--link Process controls to #303--><path d="M389.5,370.2097 C389.5,381.0651 389.5,395.0026 389.5,405.8171 " fill="none" id="Process controls-&gt;#303" style="stroke: #5C2F1C; stroke-width: 1.0;"/><polygon fill="#5C2F1C" points="389.5,410.8479,393.5,401.8479,389.5,405.8479,385.5,401.8479,389.5,410.8479" style="stroke: #5C2F1C; stroke-width: 1.0;"/><text fill="#000000" font-family="sans-serif" font-size="11" lengthAdjust="spacingAndGlyphs" textLength="121" x="248.4594" y="403.2099">continue processing?</text><!--link #303 to RENDERING--><path d="M385.1409,430.9362 C377.9814,444.1247 363.7845,470.2768 356.3294,484.0099 " fill="none" id="#303-&gt;RENDERING" style="stroke: #5C2F1C; stroke-width: 1.0;"/><polygon fill="#5C2F1C" points="353.7492,488.763,361.5584,482.7616,356.1346,484.3687,354.5275,478.9449,353.7492,488.763" style="stroke: #5C2F1C; stroke-width: 1.0;"/><text fill="#000000" font-family="sans-serif" font-size="11" lengthAdjust="spacingAndGlyphs" textLength="20" x="373.5" y="466.1167">yes</text><!--link #303 to REDIRECT_CHECK--><path d="M397.344,427.1772 C413.6077,436.6713 449.5,461.2141 449.5,492.9063 C449.5,492.9063 449.5,492.9063 449.5,720.9063 C449.5,747.2076 368.9812,768.4403 326.7241,777.7724 " fill="none" id="#303-&gt;REDIRECT_CHECK" style="stroke: #5C2F1C; stroke-width: 1.0;"/><polygon fill="#5C2F1C" points="321.7684,778.8511,331.4132,780.8453,326.654,777.7876,329.7117,773.0284,321.7684,778.8511" style="stroke: #5C2F1C; stroke-width: 1.0;"/><text fill="#000000" font-family="sans-serif" font-size="11" lengthAdjust="spacingAndGlyphs" textLength="14" x="450.5" y="606.1167">no</text><!--link #298 to RENDERING--><path d="M283.5773,360.8344 C296.0716,385.1289 333.7735,458.4381 346.9192,483.9992 " fill="none" id="#298-&gt;RENDERING" style="stroke: #5C2F1C; stroke-width: 1.0;"/><polygon fill="#5C2F1C" points="349.2062,488.4461,348.647,478.6131,346.9194,483.9997,341.5328,482.272,349.2062,488.4461" style="stroke: #5C2F1C; stroke-width: 1.0;"/><text fill="#000000" font-family="sans-serif" font-size="11" lengthAdjust="spacingAndGlyphs" textLength="20" x="322.5" y="427.1167">yes</text><!--link RENDERING to #311--><path d="M351.5,497.0755 C351.5,506.3837 351.5,529.309 351.5,545.4782 " fill="none" id="RENDERING-&gt;#311" style="stroke: #5C2F1C; stroke-width: 1.0;"/><polygon fill="#5C2F1C" points="351.5,550.6732,355.5,541.6732,351.5,545.6732,347.5,541.6732,351.5,550.6732" style="stroke: #5C2F1C; stroke-width: 1.0;"/><text fill="#000000" font-family="sans-serif" font-size="11" lengthAdjust="spacingAndGlyphs" textLength="45" x="295.5313" y="540.1911">is Post?</text><!--link #311 to Page.onPost()--><path d="M344.4939,568.0983 C329.2201,579.4173 292.2338,606.8268 266.5123,625.8883 " fill="none" id="#311-&gt;Page.onPost()" style="stroke: #5C2F1C; stroke-width: 1.0;"/><polygon fill="#5C2F1C" points="262.4859,628.8721,272.0984,626.7271,266.503,625.895,267.3351,620.2997,262.4859,628.8721" style="stroke: #5C2F1C; stroke-width: 1.0;"/><text fill="#000000" font-family="sans-serif" font-size="11" lengthAdjust="spacingAndGlyphs" textLength="20" x="307.5" y="606.1167">yes</text><!--link Page.onPost() to render--><path d="M253.5688,662.925 C262.542,673.7797 274.2454,687.9371 283.8413,699.545 " fill="none" id="Page.onPost()-&gt;render" style="stroke: #5C2F1C; stroke-width: 1.0;"/><polygon fill="#5C2F1C" points="287.2723,703.6954,284.6208,694.2101,284.0865,699.8417,278.4549,699.3074,287.2723,703.6954" style="stroke: #5C2F1C; stroke-width: 1.0;"/><!--link render to REDIRECT_CHECK--><path d="M301.5,738.1768 C301.5,749.5709 301.5,764.0661 301.5,773.415 " fill="none" id="render-&gt;REDIRECT_CHECK" style="stroke: #5C2F1C; stroke-width: 1.0;"/><polygon fill="#5C2F1C" points="301.5,778.4971,305.5,769.4971,301.5,773.4971,297.5,769.4971,301.5,778.4971" style="stroke: #5C2F1C; stroke-width: 1.0;"/><!--link #311 to Page.onGet()--><path d="M353.3393,573.0837 C355.608,585.6372 359.5288,607.3326 362.5024,623.7865 " fill="none" id="#311-&gt;Page.onGet()" style="stroke: #5C2F1C; stroke-width: 1.0;"/><polygon fill="#5C2F1C" points="363.392,628.7086,365.7275,619.1406,362.5027,623.7883,357.8551,620.5635,363.392,628.7086" style="stroke: #5C2F1C; stroke-width: 1.0;"/><text fill="#000000" font-family="sans-serif" font-size="11" lengthAdjust="spacingAndGlyphs" textLength="14" x="360.5" y="606.1167">no</text><!--link Page.onGet() to render--><path d="M351.7505,662.925 C342.2605,673.8748 329.8579,688.1857 319.7489,699.8498 " fill="none" id="Page.onGet()-&gt;render" style="stroke: #5C2F1C; stroke-width: 1.0;"/><polygon fill="#5C2F1C" points="316.4161,703.6954,325.3332,699.5138,319.6907,699.9169,319.2876,694.2744,316.4161,703.6954" style="stroke: #5C2F1C; stroke-width: 1.0;"/><!--link #293 to REDIRECT_CHECK--><path d="M158.8765,288.5583 C156.8086,303.0719 153.5,329.89 153.5,352.9063 C153.5,352.9063 153.5,352.9063 153.5,720.9063 C153.5,747.2076 234.0188,768.4403 276.2759,777.7724 " fill="none" id="#293-&gt;REDIRECT_CHECK" style="stroke: #5C2F1C; stroke-width: 1.0;"/><polygon fill="#5C2F1C" points="281.2316,778.8511,273.2883,773.0284,276.346,777.7876,271.5868,780.8453,281.2316,778.8511" style="stroke: #5C2F1C; stroke-width: 1.0;"/><text fill="#000000" font-family="sans-serif" font-size="11" lengthAdjust="spacingAndGlyphs" textLength="28" x="154.5" y="528.1167">false</text><!--link REDIRECT_CHECK to #323--><path d="M301.5,787.0056 C301.5,794.3317 301.5,810.0666 301.5,822.4814 " fill="none" id="REDIRECT_CHECK-&gt;#323" style="stroke: #5C2F1C; stroke-width: 1.0;"/><polygon fill="#5C2F1C" points="301.5,827.5645,305.5,818.5645,301.5,822.5645,297.5,818.5645,301.5,827.5645" style="stroke: #5C2F1C; stroke-width: 1.0;"/><text fill="#000000" font-family="sans-serif" font-size="11" lengthAdjust="spacingAndGlyphs" textLength="69" x="216.5438" y="817.4779">Do redirect?</text><!--link #323 to redirect request--><path d="M309.1707,844.6046 C318.3856,850.2487 334.4375,860.0804 349.082,869.0503 " fill="none" id="#323-&gt;redirect request" style="stroke: #5C2F1C; stroke-width: 1.0;"/><polygon fill="#5C2F1C" points="353.5725,871.8007,347.987,863.6888,349.3087,869.1891,343.8085,870.5108,353.5725,871.8007" style="stroke: #5C2F1C; stroke-width: 1.0;"/><text fill="#000000" font-family="sans-serif" font-size="11" lengthAdjust="spacingAndGlyphs" textLength="20" x="332.4285" y="855.4479">yes</text><!--link redirect request to BEFORE_DESTROY--><path d="M393.6279,906.055 C402.6746,921.1521 411.8375,943.2619 401.5,959.9063 C387.64,982.2223 359.0712,993.8068 337.6198,999.5913 " fill="none" id="redirect request-&gt;BEFORE_DESTROY" style="stroke: #5C2F1C; stroke-width: 1.0;"/><polygon fill="#5C2F1C" points="332.6091,1000.8732,342.3197,1002.5176,337.4531,999.6339,340.3368,994.7673,332.6091,1000.8732" style="stroke: #5C2F1C; stroke-width: 1.0;"/><!--link #323 to #330--><path d="M294.7611,845.7391 C274.9612,862.8768 216.8598,913.1663 192.9562,933.856 " fill="none" id="#323-&gt;#330" style="stroke: #5C2F1C; stroke-width: 1.0;"/><polygon fill="#5C2F1C" points="189.165,937.1374,198.5877,934.2717,192.9455,933.8651,193.3522,928.2229,189.165,937.1374" style="stroke: #5C2F1C; stroke-width: 1.0;"/><text fill="#000000" font-family="sans-serif" font-size="11" lengthAdjust="spacingAndGlyphs" textLength="71" x="151.0237" y="921.0557">Do Forward?</text><!--reverse link Forward request to #330--><path d="M134.2058,942.9063 C148.153,942.9063 161.3585,942.9063 170.4239,942.9063 " fill="none" id="Forward request&lt;-#330" style="stroke: #5C2F1C; stroke-width: 1.0;"/><polygon fill="#5C2F1C" points="129.04,942.9063,138.04,946.9063,134.04,942.9063,138.04,938.9063,129.04,942.9063" style="stroke: #5C2F1C; stroke-width: 1.0;"/><text fill="#000000" font-family="sans-serif" font-size="11" lengthAdjust="spacingAndGlyphs" textLength="20" x="139.75" y="937.1167">yes</text><!--link Forward request to BEFORE_DESTROY--><path d="M129.1333,958.6317 C181.6679,972.0356 254.1102,990.5188 289.43,999.5304 " fill="none" id="Forward request-&gt;BEFORE_DESTROY" style="stroke: #5C2F1C; stroke-width: 1.0;"/><polygon fill="#5C2F1C" points="294.365,1000.7895,286.6333,994.6885,289.5202,999.5533,284.6555,1002.4402,294.365,1000.7895" style="stroke: #5C2F1C; stroke-width: 1.0;"/><!--link #330 to Render page template--><path d="M194.7732,942.9063 C202.4384,942.9063 213.0603,942.9063 224.7855,942.9063 " fill="none" id="#330-&gt;Render page template" style="stroke: #5C2F1C; stroke-width: 1.0;"/><polygon fill="#5C2F1C" points="229.8726,942.9063,220.8726,938.9063,224.8726,942.9063,220.8726,946.9063,229.8726,942.9063" style="stroke: #5C2F1C; stroke-width: 1.0;"/><text fill="#000000" font-family="sans-serif" font-size="11" lengthAdjust="spacingAndGlyphs" textLength="14" x="205.25" y="937.1167">no</text><!--link Render page template to BEFORE_DESTROY--><path d="M310.5,960.1768 C310.5,971.5709 310.5,986.0661 310.5,995.415 " fill="none" id="Render page template-&gt;BEFORE_DESTROY" style="stroke: #5C2F1C; stroke-width: 1.0;"/><polygon fill="#5C2F1C" points="310.5,1000.4971,314.5,991.4971,310.5,995.4971,306.5,991.4971,310.5,1000.4971" style="stroke: #5C2F1C; stroke-width: 1.0;"/><!--link BEFORE_DESTROY to Page.onDestroy()--><path d="M310.5,1008.9743 C310.5,1016.1568 310.5,1031.5674 310.5,1044.6894 " fill="none" id="BEFORE_DESTROY-&gt;Page.onDestroy()" style="stroke: #5C2F1C; stroke-width: 1.0;"/><polygon fill="#5C2F1C" points="310.5,1049.7696,314.5,1040.7696,310.5,1044.7696,306.5,1040.7696,310.5,1049.7696" style="stroke: #5C2F1C; stroke-width: 1.0;"/><!--link Page.onDestroy() to end--><path d="M310.5,1084.0656 C310.5,1094.921 310.5,1108.8406 310.5,1119.3696 " fill="none" id="Page.onDestroy()-&gt;end" style="stroke: #5C2F1C; stroke-width: 1.0;"/><polygon fill="#5C2F1C" points="310.5,1124.5323,314.5,1115.5323,310.5,1119.5323,306.5,1115.5323,310.5,1124.5323" style="stroke: #5C2F1C; stroke-width: 1.0;"/><!--
@startuml






    skinparam DesignedDomainStereotypeFontColor #be743a
    skinparam RequirementStereotypeFontColor    #be743a
    skinparam ParticipantStereotypeFontColor    #be743a
    skinparam RectangleStereotypeFontColor      #be743a
    skinparam ArchimateStereotypeFontColor      #be743a
    skinparam ComponentStereotypeFontColor      #be743a
    skinparam InterfaceStereotypeFontColor      #be743a
    skinparam SequenceStereotypeFontColor       #be743a
    skinparam ArtifactStereotypeFontColor       #be743a
    skinparam BoundaryStereotypeFontColor       #be743a
    skinparam DatabaseStereotypeFontColor       #be743a
    skinparam UsercaseStereotypeFontColor       #be743a
    skinparam MachineStereotypeFontColor        #be743a
    skinparam ControlStereotypeFontColor        #be743a
    skinparam StorageStereotypeFontColor        #be743a
    skinparam PackageStereotypeFontColor        #be743a
    skinparam ObjectStereotypeFontColor         #be743a
    skinparam DomainStereotypeFontColor         #be743a
    skinparam EntityStereotypeFontColor         #be743a
    skinparam FolderStereotypeFontColor         #be743a
    skinparam QueueStereotypeFontColor          #be743a
    skinparam StackStereotypeFontColor          #be743a
    skinparam FrameStereotypeFontColor          #be743a
    skinparam ActorStereotypeFontColor          #be743a
    skinparam AgentStereotypeFontColor          #be743a
    skinparam ClassStereotypeFontColor          #be743a
    skinparam CloudStereotypeFontColor          #be743a
    skinparam FileStereotypeFontColor           #be743a
    skinparam CardStereotypeFontColor           #be743a
    skinparam NodeStereotypeFontColor           #be743a

    skinparam Title {
        FontColor              #be743a
    }

    skinparam Legend {
        BorderColor            #cf854b
        BackgroundColor        #fff9df
        FontColor              #36332e
        FontSize               11
    }

    skinparam Note {
        BorderColor            #cf854b
        BackgroundColor        #fff9df
        FontColor              #36332e
    }

    skinparam Activity {
        BackgroundColor        #faf9f7
        BorderColor            #cf854b
        FontColor              #14110c

        DiamondBackgroundColor #ffe8ae
        DiamondBorderColor     #df955b
        DiamondFontColor       #14110c

        ArrowColor             #5c2f1c
        BarColor               #cf854b

        StartColor             #cf854b
        EndColor               #5c2f1c
    }

    skinparam Class {
        BorderColor             #cf854b
        BackgroundColor         #faf9f7
        FontColor               #36332e
        HeaderBackgroundColor   #ffe8ae
    }

    skinparam CircledCharacter {
        FontSize               11
    }

    skinparam StereotypeA {
        BackgroundColor #fff9df
    }

    skinparam StereotypeC {
        BackgroundColor #fff9df
    }

    skinparam StereotypeE {
        BackgroundColor #fff9df
    }

    skinparam StereotypeI {
        BackgroundColor #fff9df
    }

    skinparam StereotypeN {
        BackgroundColor #fff9df
    }

    skinparam interface {
        BorderColor     #df955b
        BackgroundColor #ffe8ae
    }

    skinparam component {
        BorderColor     #cf854b
        BackgroundColor #faf9f7
        FontColor       #14110c
    }


Title <u>Complete Example</u> \n

(*) - -> "ClickServlet.handleRequest()"
- -> "new Page"

if "Page.onSecurityCheck" then
  ->[true] "Page.onInit()"
  
  if "isForward?" then
   ->[no] "Process controls"
   
   if "continue processing?" then
	 - ->[yes] ===RENDERING===
   else
	 - ->[no] ===REDIRECT_CHECK===
   endif
   
  else
   - ->[yes] ===RENDERING===
  endif
  
  if "is Post?" then
	- ->[yes] "Page.onPost()"
	- -> "Page.onRender()" as render
	- -> ===REDIRECT_CHECK===
  else
	- ->[no] "Page.onGet()"
	- -> render
  endif
  
else
  - ->[false] ===REDIRECT_CHECK===
endif

if "Do redirect?" then
 ->[yes] "redirect request"
 - -> ==BEFORE_DESTROY===
else
 if "Do Forward?" then
  -left->[yes] "Forward request"
  - -> ==BEFORE_DESTROY===
 else
  -right->[no] "Render page template"
  - -> ==BEFORE_DESTROY===
 endif
endif

- -> "Page.onDestroy()"
- ->(*)
@enduml

PlantUML version 1.2019.09(Mon Aug 26 16:19:51 UTC 2019)
(GPL source distribution)
Java Runtime: OpenJDK Runtime Environment
JVM: OpenJDK 64-Bit Server VM
Java Version: 1.8.0_162-heroku-b12
Operating System: Linux
OS Version: 4.4.0-1062-aws
Default Encoding: UTF-8
Language: en
Country: US
--></g></svg>