<?xml version="1.0" encoding="UTF-8" standalone="no"?><svg xmlns="http://www.w3.org/2000/svg" xmlns:xlink="http://www.w3.org/1999/xlink" contentScriptType="application/ecmascript" contentStyleType="text/css" height="633px" preserveAspectRatio="none" style="width:403px;height:633px;" version="1.1" viewBox="0 0 403 633" width="403px" zoomAndPan="magnify"><defs><filter height="300%" id="f16opnq5msl2xr" width="300%" x="-1" y="-1"><feGaussianBlur result="blurOut" stdDeviation="2.0"/><feColorMatrix in="blurOut" result="blurOut2" type="matrix" values="0 0 0 0 0 0 0 0 0 0 0 0 0 0 0 0 0 0 .4 0"/><feOffset dx="4.0" dy="4.0" in="blurOut2" result="blurOut3"/><feBlend in="SourceGraphic" in2="blurOut3" mode="normal"/></filter></defs><g><text fill="#888888" font-family="sans-serif" font-size="10" lengthAdjust="spacingAndGlyphs" textLength="0" x="391.625" y="19.2822"/><text fill="#888888" font-family="sans-serif" font-size="10" lengthAdjust="spacingAndGlyphs" textLength="65" x="326.625" y="30.9229">A day in a life</text><text fill="#BE743A" font-family="sans-serif" font-size="18" lengthAdjust="spacingAndGlyphs" text-decoration="underline" textLength="197" x="99.3125" y="49.9893">Developer Action Plan</text><text fill="#BE743A" font-family="sans-serif" font-size="18" lengthAdjust="spacingAndGlyphs" textLength="0" x="302.3125" y="49.9893"/><text fill="#BE743A" font-family="sans-serif" font-size="18" lengthAdjust="spacingAndGlyphs" textLength="0" x="203.8125" y="70.9424"/><ellipse cx="128.125" cy="85.1875" fill="#CF854B" filter="url(#f16opnq5msl2xr)" rx="10" ry="10" style="stroke: none; stroke-width: 1.0;"/><rect fill="#FAF9F7" filter="url(#f16opnq5msl2xr)" height="33.9688" rx="12.5" ry="12.5" style="stroke: #CF854B; stroke-width: 1.5;" width="87" x="84.625" y="115.1875"/><text fill="#14110C" font-family="sans-serif" font-size="12" lengthAdjust="spacingAndGlyphs" textLength="67" x="94.625" y="136.3262">Day.start()</text><path d="M195.625,166.0078 L195.625,182.1406 L175.625,186.1406 L195.625,190.1406 L195.625,206.2734 A0,0 0 0 0 195.625,206.2734 L391.625,206.2734 A0,0 0 0 0 391.625,206.2734 L391.625,176.0078 L381.625,166.0078 L195.625,166.0078 A0,0 0 0 0 195.625,166.0078 " fill="#FFF9DF" filter="url(#f16opnq5msl2xr)" style="stroke: #CF854B; stroke-width: 1.0;"/><path d="M381.625,166.0078 L381.625,176.0078 L391.625,176.0078 L381.625,166.0078 " fill="#FFF9DF" style="stroke: #CF854B; stroke-width: 1.0;"/><text fill="#36332E" font-family="sans-serif" font-size="13" lengthAdjust="spacingAndGlyphs" textLength="35" x="201.625" y="183.0747">Note:</text><text fill="#36332E" font-family="sans-serif" font-size="13" lengthAdjust="spacingAndGlyphs" textLength="175" x="201.625" y="198.2075">We prefer double espresso!</text><rect fill="#FAF9F7" filter="url(#f16opnq5msl2xr)" height="33.9688" rx="12.5" ry="12.5" style="stroke: #CF854B; stroke-width: 1.5;" width="95" x="80.625" y="169.1563"/><text fill="#14110C" font-family="sans-serif" font-size="12" lengthAdjust="spacingAndGlyphs" textLength="75" x="90.625" y="190.2949">Drink coffee</text><polygon fill="#FFE8AE" filter="url(#f16opnq5msl2xr)" points="89.625,226.2734,166.625,226.2734,178.625,238.2734,166.625,250.2734,89.625,250.2734,77.625,238.2734,89.625,226.2734" style="stroke: #DF955B; stroke-width: 1.5;"/><text fill="#14110C" font-family="sans-serif" font-size="11" lengthAdjust="spacingAndGlyphs" textLength="77" x="89.625" y="242.0815">is awake yet?</text><text fill="#000000" font-family="sans-serif" font-size="11" lengthAdjust="spacingAndGlyphs" textLength="20" x="57.625" y="235.6792">yes</text><text fill="#000000" font-family="sans-serif" font-size="11" lengthAdjust="spacingAndGlyphs" textLength="14" x="178.625" y="235.6792">no</text><rect fill="#FAF9F7" filter="url(#f16opnq5msl2xr)" height="33.9688" rx="12.5" ry="12.5" style="stroke: #CF854B; stroke-width: 1.5;" width="49" x="10" y="260.2734"/><text fill="#14110C" font-family="sans-serif" font-size="12" lengthAdjust="spacingAndGlyphs" textLength="29" x="20" y="281.4121">work</text><polygon fill="#FFE8AE" filter="url(#f16opnq5msl2xr)" points="179.25,260.2734,264.25,260.2734,276.25,272.2734,264.25,284.2734,179.25,284.2734,167.25,272.2734,179.25,260.2734" style="stroke: #DF955B; stroke-width: 1.5;"/><text fill="#14110C" font-family="sans-serif" font-size="11" lengthAdjust="spacingAndGlyphs" textLength="85" x="179.25" y="276.0815">had breakfast?</text><text fill="#000000" font-family="sans-serif" font-size="11" lengthAdjust="spacingAndGlyphs" textLength="20" x="147.25" y="269.6792">yes</text><text fill="#000000" font-family="sans-serif" font-size="11" lengthAdjust="spacingAndGlyphs" textLength="14" x="276.25" y="269.6792">no</text><rect fill="#FAF9F7" filter="url(#f16opnq5msl2xr)" height="33.9688" rx="12.5" ry="12.5" style="stroke: #CF854B; stroke-width: 1.5;" width="131" x="89" y="294.2734"/><text fill="#14110C" font-family="sans-serif" font-size="12" lengthAdjust="spacingAndGlyphs" textLength="111" x="99" y="315.4121">Drink more coffee</text><rect fill="#FAF9F7" filter="url(#f16opnq5msl2xr)" height="33.9688" rx="12.5" ry="12.5" style="stroke: #CF854B; stroke-width: 1.5;" width="98" x="240" y="294.2734"/><text fill="#14110C" font-family="sans-serif" font-size="12" lengthAdjust="spacingAndGlyphs" textLength="78" x="250" y="315.4121">Eat a cookie</text><polygon fill="#FFE8AE" filter="url(#f16opnq5msl2xr)" points="221.75,334.2422,233.75,346.2422,221.75,358.2422,209.75,346.2422,221.75,334.2422" style="stroke: #DF955B; stroke-width: 1.5;"/><rect fill="#CF854B" filter="url(#f16opnq5msl2xr)" height="6" rx="2.5" ry="2.5" style="stroke: #CF854B; stroke-width: 1.0;" width="77" x="183.25" y="378.2422"/><rect fill="#FAF9F7" filter="url(#f16opnq5msl2xr)" height="33.9688" rx="12.5" ry="12.5" style="stroke: #CF854B; stroke-width: 1.5;" width="49" x="197.25" y="404.2422"/><text fill="#14110C" font-family="sans-serif" font-size="12" lengthAdjust="spacingAndGlyphs" textLength="29" x="207.25" y="425.3809">work</text><rect fill="#CF854B" filter="url(#f16opnq5msl2xr)" height="6" rx="2.5" ry="2.5" style="stroke: #CF854B; stroke-width: 1.0;" width="77" x="183.25" y="458.2109"/><polygon fill="#FFE8AE" filter="url(#f16opnq5msl2xr)" points="128.125,470.2109,140.125,482.2109,128.125,494.2109,116.125,482.2109,128.125,470.2109" style="stroke: #DF955B; stroke-width: 1.5;"/><ellipse cx="128.125" cy="525.2109" fill="#FFFFFF" filter="url(#f16opnq5msl2xr)" rx="11" ry="11" style="stroke: #5C2F1C; stroke-width: 1.0;"/><ellipse cx="128.125" cy="525.2109" fill="#5C2F1C" rx="6" ry="6" style="stroke: #AD978D; stroke-width: 1.0;"/><line style="stroke: #5C2F1C; stroke-width: 1.5;" x1="128.125" x2="128.125" y1="95.1875" y2="115.1875"/><polygon fill="#5C2F1C" points="124.125,105.1875,128.125,115.1875,132.125,105.1875,128.125,109.1875" style="stroke: #5C2F1C; stroke-width: 1.0;"/><line style="stroke: #5C2F1C; stroke-width: 1.5;" x1="128.125" x2="128.125" y1="149.1563" y2="169.1563"/><polygon fill="#5C2F1C" points="124.125,159.1563,128.125,169.1563,132.125,159.1563,128.125,163.1563" style="stroke: #5C2F1C; stroke-width: 1.0;"/><line style="stroke: #5C2F1C; stroke-width: 1.5;" x1="167.25" x2="154.5" y1="272.2734" y2="272.2734"/><line style="stroke: #5C2F1C; stroke-width: 1.5;" x1="154.5" x2="154.5" y1="272.2734" y2="294.2734"/><polygon fill="#5C2F1C" points="150.5,284.2734,154.5,294.2734,158.5,284.2734,154.5,288.2734" style="stroke: #5C2F1C; stroke-width: 1.0;"/><line style="stroke: #5C2F1C; stroke-width: 1.5;" x1="276.25" x2="289" y1="272.2734" y2="272.2734"/><line style="stroke: #5C2F1C; stroke-width: 1.5;" x1="289" x2="289" y1="272.2734" y2="294.2734"/><polygon fill="#5C2F1C" points="285,284.2734,289,294.2734,293,284.2734,289,288.2734" style="stroke: #5C2F1C; stroke-width: 1.0;"/><line style="stroke: #5C2F1C; stroke-width: 1.5;" x1="154.5" x2="154.5" y1="328.2422" y2="346.2422"/><line style="stroke: #5C2F1C; stroke-width: 1.5;" x1="154.5" x2="209.75" y1="346.2422" y2="346.2422"/><polygon fill="#5C2F1C" points="199.75,342.2422,209.75,346.2422,199.75,350.2422,203.75,346.2422" style="stroke: #5C2F1C; stroke-width: 1.0;"/><line style="stroke: #5C2F1C; stroke-width: 1.5;" x1="289" x2="289" y1="328.2422" y2="346.2422"/><line style="stroke: #5C2F1C; stroke-width: 1.5;" x1="289" x2="233.75" y1="346.2422" y2="346.2422"/><polygon fill="#5C2F1C" points="243.75,342.2422,233.75,346.2422,243.75,350.2422,239.75,346.2422" style="stroke: #5C2F1C; stroke-width: 1.0;"/><line style="stroke: #5C2F1C; stroke-width: 1.5;" x1="221.75" x2="221.75" y1="384.2422" y2="404.2422"/><polygon fill="#5C2F1C" points="217.75,394.2422,221.75,404.2422,225.75,394.2422,221.75,398.2422" style="stroke: #5C2F1C; stroke-width: 1.0;"/><line style="stroke: #5C2F1C; stroke-width: 1.5;" x1="221.75" x2="221.75" y1="438.2109" y2="458.2109"/><polygon fill="#5C2F1C" points="217.75,448.2109,221.75,458.2109,225.75,448.2109,221.75,452.2109" style="stroke: #5C2F1C; stroke-width: 1.0;"/><line style="stroke: #5C2F1C; stroke-width: 1.5;" x1="221.75" x2="221.75" y1="358.2422" y2="378.2422"/><polygon fill="#5C2F1C" points="217.75,368.2422,221.75,378.2422,225.75,368.2422,221.75,372.2422" style="stroke: #5C2F1C; stroke-width: 1.0;"/><line style="stroke: #5C2F1C; stroke-width: 1.5;" x1="77.625" x2="34.5" y1="238.2734" y2="238.2734"/><line style="stroke: #5C2F1C; stroke-width: 1.5;" x1="34.5" x2="34.5" y1="238.2734" y2="260.2734"/><polygon fill="#5C2F1C" points="30.5,250.2734,34.5,260.2734,38.5,250.2734,34.5,254.2734" style="stroke: #5C2F1C; stroke-width: 1.0;"/><line style="stroke: #5C2F1C; stroke-width: 1.5;" x1="178.625" x2="221.75" y1="238.2734" y2="238.2734"/><line style="stroke: #5C2F1C; stroke-width: 1.5;" x1="221.75" x2="221.75" y1="238.2734" y2="260.2734"/><polygon fill="#5C2F1C" points="217.75,250.2734,221.75,260.2734,225.75,250.2734,221.75,254.2734" style="stroke: #5C2F1C; stroke-width: 1.0;"/><line style="stroke: #5C2F1C; stroke-width: 1.5;" x1="34.5" x2="34.5" y1="294.2422" y2="482.2109"/><line style="stroke: #5C2F1C; stroke-width: 1.5;" x1="34.5" x2="116.125" y1="482.2109" y2="482.2109"/><polygon fill="#5C2F1C" points="106.125,478.2109,116.125,482.2109,106.125,486.2109,110.125,482.2109" style="stroke: #5C2F1C; stroke-width: 1.0;"/><line style="stroke: #5C2F1C; stroke-width: 1.5;" x1="221.75" x2="221.75" y1="464.2109" y2="482.2109"/><line style="stroke: #5C2F1C; stroke-width: 1.5;" x1="221.75" x2="140.125" y1="482.2109" y2="482.2109"/><polygon fill="#5C2F1C" points="150.125,478.2109,140.125,482.2109,150.125,486.2109,146.125,482.2109" style="stroke: #5C2F1C; stroke-width: 1.0;"/><line style="stroke: #5C2F1C; stroke-width: 1.5;" x1="128.125" x2="128.125" y1="203.125" y2="226.2734"/><polygon fill="#5C2F1C" points="124.125,216.2734,128.125,226.2734,132.125,216.2734,128.125,220.2734" style="stroke: #5C2F1C; stroke-width: 1.0;"/><line style="stroke: #5C2F1C; stroke-width: 1.5;" x1="128.125" x2="128.125" y1="494.2109" y2="514.2109"/><polygon fill="#5C2F1C" points="124.125,504.2109,128.125,514.2109,132.125,504.2109,128.125,508.2109" style="stroke: #5C2F1C; stroke-width: 1.0;"/><rect fill="#FFF9DF" height="35.6094" rx="5" ry="5" style="stroke: #CF854B; stroke-width: 1.0;" width="92" x="290.625" y="543.2109"/><text fill="#36332E" font-family="sans-serif" font-size="11" lengthAdjust="spacingAndGlyphs" textLength="80" x="296.625" y="558.4214">This legend is</text><text fill="#36332E" font-family="sans-serif" font-size="11" lengthAdjust="spacingAndGlyphs" textLength="56" x="296.625" y="571.2261">legendary</text><text fill="#888888" font-family="sans-serif" font-size="10" lengthAdjust="spacingAndGlyphs" textLength="0" x="202.3125" y="597.1025"/><text fill="#888888" font-family="sans-serif" font-size="10" lengthAdjust="spacingAndGlyphs" textLength="0" x="202.3125" y="608.7432"/><text fill="#888888" font-family="sans-serif" font-size="10" lengthAdjust="spacingAndGlyphs" textLength="197" x="115.8125" y="620.3838">Typical day for John, a software engineer</text><!--
@startuml






    skinparam DesignedDomainStereotypeFontColor #be743a
    skinparam RequirementStereotypeFontColor    #be743a
    skinparam ParticipantStereotypeFontColor    #be743a
    skinparam RectangleStereotypeFontColor      #be743a
    skinparam ArchimateStereotypeFontColor      #be743a
    skinparam ComponentStereotypeFontColor      #be743a
    skinparam InterfaceStereotypeFontColor      #be743a
    skinparam SequenceStereotypeFontColor       #be743a
    skinparam ArtifactStereotypeFontColor       #be743a
    skinparam BoundaryStereotypeFontColor       #be743a
    skinparam DatabaseStereotypeFontColor       #be743a
    skinparam UsercaseStereotypeFontColor       #be743a
    skinparam MachineStereotypeFontColor        #be743a
    skinparam ControlStereotypeFontColor        #be743a
    skinparam StorageStereotypeFontColor        #be743a
    skinparam PackageStereotypeFontColor        #be743a
    skinparam ObjectStereotypeFontColor         #be743a
    skinparam DomainStereotypeFontColor         #be743a
    skinparam EntityStereotypeFontColor         #be743a
    skinparam FolderStereotypeFontColor         #be743a
    skinparam QueueStereotypeFontColor          #be743a
    skinparam StackStereotypeFontColor          #be743a
    skinparam FrameStereotypeFontColor          #be743a
    skinparam ActorStereotypeFontColor          #be743a
    skinparam AgentStereotypeFontColor          #be743a
    skinparam ClassStereotypeFontColor          #be743a
    skinparam CloudStereotypeFontColor          #be743a
    skinparam FileStereotypeFontColor           #be743a
    skinparam CardStereotypeFontColor           #be743a
    skinparam NodeStereotypeFontColor           #be743a

    skinparam Title {
        FontColor              #be743a
    }

    skinparam Legend {
        BorderColor            #cf854b
        BackgroundColor        #fff9df
        FontColor              #36332e
        FontSize               11
    }

    skinparam Note {
        BorderColor            #cf854b
        BackgroundColor        #fff9df
        FontColor              #36332e
    }

    skinparam Activity {
        BackgroundColor        #faf9f7
        BorderColor            #cf854b
        FontColor              #14110c

        DiamondBackgroundColor #ffe8ae
        DiamondBorderColor     #df955b
        DiamondFontColor       #14110c

        ArrowColor             #5c2f1c
        BarColor               #cf854b

        StartColor             #cf854b
        EndColor               #5c2f1c
    }

    skinparam Class {
        BorderColor             #cf854b
        BackgroundColor         #faf9f7
        FontColor               #36332e
        HeaderBackgroundColor   #ffe8ae
    }

    skinparam CircledCharacter {
        FontSize               11
    }

    skinparam StereotypeA {
        BackgroundColor #fff9df
    }

    skinparam StereotypeC {
        BackgroundColor #fff9df
    }

    skinparam StereotypeE {
        BackgroundColor #fff9df
    }

    skinparam StereotypeI {
        BackgroundColor #fff9df
    }

    skinparam StereotypeN {
        BackgroundColor #fff9df
    }

    skinparam interface {
        BorderColor     #df955b
        BackgroundColor #ffe8ae
    }

    skinparam component {
        BorderColor     #cf854b
        BackgroundColor #faf9f7
        FontColor       #14110c
    }


    Header \n A day in a life
    Title <u>Developer Action Plan</u> \n

    start
    :Day.start();
    :Drink coffee;

    note right
        Note:
        We prefer double espresso!
    endnote

    if (is awake yet?) then (yes)
    :work;
    else (no)
    if (had breakfast?) then (yes)
        :Drink more coffee;
    else (no)
        :Eat a cookie;
    endif
    fork
    :work;
    endfork
    endif

    stop

    legend right
        This legend is
        legendary
    endlegend

    Footer \n\n\t Typical day for John, a software engineer
@enduml

PlantUML version 1.2019.09(Mon Aug 26 16:19:51 UTC 2019)
(GPL source distribution)
Java Runtime: OpenJDK Runtime Environment
JVM: OpenJDK 64-Bit Server VM
Java Version: 1.8.0_162-heroku-b12
Operating System: Linux
OS Version: 4.4.0-1062-aws
Default Encoding: UTF-8
Language: en
Country: US
--></g></svg>